<?xml version="1.0" encoding="UTF-8" standalone="no"?>
<!DOCTYPE svg PUBLIC "-//W3C//DTD SVG 1.1//EN"
 "http://www.w3.org/Graphics/SVG/1.1/DTD/svg11.dtd">
<!-- Generated by graphviz version 2.47.3 (20210619.1520)
 -->
<!-- Title: dependencies Pages: 1 -->
<svg width="2988pt" height="247pt"
 viewBox="0.00 0.00 2988.00 246.80" xmlns="http://www.w3.org/2000/svg" xmlns:xlink="http://www.w3.org/1999/xlink">
<g id="graph0" class="graph" transform="scale(1 1) rotate(0) translate(4 242.8)">
<title>dependencies</title>
<polygon fill="white" stroke="transparent" points="-4,4 -4,-242.8 2984,-242.8 2984,4 -4,4"/>
<text text-anchor="middle" x="1490" y="-8.2" font-family="sans-serif" font-size="14.00">dependencies</text>
<g id="clust1" class="cluster">
<title>cluster_AppModule</title>
<polygon fill="none" stroke="black" stroke-dasharray="1,5" points="8,-32.8 8,-230.8 2972,-230.8 2972,-32.8 8,-32.8"/>
</g>
<g id="clust21" class="cluster">
<title>cluster_AppModule_providers</title>
<polygon fill="none" stroke="black" points="2676,-40.8 2676,-92.8 2964,-92.8 2964,-40.8 2676,-40.8"/>
</g>
<g id="clust2" class="cluster">
<title>cluster_AppModule_declarations</title>
<polygon fill="none" stroke="black" points="285,-40.8 285,-92.8 2668,-92.8 2668,-40.8 285,-40.8"/>
</g>
<g id="clust18" class="cluster">
<title>cluster_AppModule_imports</title>
<polygon fill="none" stroke="black" points="16,-40.8 16,-92.8 277,-92.8 277,-40.8 16,-40.8"/>
</g>
<g id="clust20" class="cluster">
<title>cluster_AppModule_bootstrap</title>
<polygon fill="none" stroke="black" points="1478,-170.8 1478,-222.8 1602,-222.8 1602,-170.8 1478,-170.8"/>
</g>
<!-- AppComponent -->
<g id="node1" class="node">
<title>AppComponent</title>
<polygon fill="#ffffb3" stroke="black" points="2659.94,-84.8 2554.06,-84.8 2554.06,-48.8 2659.94,-48.8 2659.94,-84.8"/>
<text text-anchor="middle" x="2607" y="-62.6" font-family="Times,serif" font-size="14.00">AppComponent</text>
</g>
<!-- AppModule -->
<g id="node16" class="node">
<title>AppModule</title>
<polygon fill="#8dd3c7" stroke="black" points="1581.66,-149.8 1578.66,-153.8 1557.66,-153.8 1554.66,-149.8 1498.34,-149.8 1498.34,-113.8 1581.66,-113.8 1581.66,-149.8"/>
<text text-anchor="middle" x="1540" y="-127.6" font-family="Times,serif" font-size="14.00">AppModule</text>
</g>
<!-- AppComponent&#45;&gt;AppModule -->
<g id="edge1" class="edge">
<title>AppComponent&#45;&gt;AppModule</title>
<path fill="none" stroke="black" d="M2607,-84.84C2607,-106.46 2607,-139.8 2607,-139.8 2607,-139.8 1591.83,-139.8 1591.83,-139.8"/>
<polygon fill="black" stroke="black" points="1591.83,-136.3 1581.83,-139.8 1591.83,-143.3 1591.83,-136.3"/>
</g>
<!-- AuthComponent -->
<g id="node2" class="node">
<title>AuthComponent</title>
<polygon fill="#ffffb3" stroke="black" points="2536.83,-84.8 2427.17,-84.8 2427.17,-48.8 2536.83,-48.8 2536.83,-84.8"/>
<text text-anchor="middle" x="2482" y="-62.6" font-family="Times,serif" font-size="14.00">AuthComponent</text>
</g>
<!-- AuthComponent&#45;&gt;AppModule -->
<g id="edge2" class="edge">
<title>AuthComponent&#45;&gt;AppModule</title>
<path fill="none" stroke="black" d="M2482,-84.93C2482,-105.37 2482,-135.8 2482,-135.8 2482,-135.8 1591.69,-135.8 1591.69,-135.8"/>
<polygon fill="black" stroke="black" points="1591.69,-132.3 1581.69,-135.8 1591.69,-139.3 1591.69,-132.3"/>
</g>
<!-- DashboardComponent -->
<g id="node3" class="node">
<title>DashboardComponent</title>
<polygon fill="#ffffb3" stroke="black" points="2408.97,-84.8 2267.03,-84.8 2267.03,-48.8 2408.97,-48.8 2408.97,-84.8"/>
<text text-anchor="middle" x="2338" y="-62.6" font-family="Times,serif" font-size="14.00">DashboardComponent</text>
</g>
<!-- DashboardComponent&#45;&gt;AppModule -->
<g id="edge3" class="edge">
<title>DashboardComponent&#45;&gt;AppModule</title>
<path fill="none" stroke="black" d="M2338,-84.91C2338,-104.14 2338,-131.8 2338,-131.8 2338,-131.8 1591.78,-131.8 1591.78,-131.8"/>
<polygon fill="black" stroke="black" points="1591.78,-128.3 1581.78,-131.8 1591.78,-135.3 1591.78,-128.3"/>
</g>
<!-- FooterComponent -->
<g id="node4" class="node">
<title>FooterComponent</title>
<polygon fill="#ffffb3" stroke="black" points="2248.88,-84.8 2131.12,-84.8 2131.12,-48.8 2248.88,-48.8 2248.88,-84.8"/>
<text text-anchor="middle" x="2190" y="-62.6" font-family="Times,serif" font-size="14.00">FooterComponent</text>
</g>
<!-- FooterComponent&#45;&gt;AppModule -->
<g id="edge4" class="edge">
<title>FooterComponent&#45;&gt;AppModule</title>
<path fill="none" stroke="black" d="M2190,-85.07C2190,-103.36 2190,-128.8 2190,-128.8 2190,-128.8 1592.15,-128.8 1592.15,-128.8"/>
<polygon fill="black" stroke="black" points="1592.15,-125.3 1582.15,-128.8 1592.15,-132.3 1592.15,-125.3"/>
</g>
<!-- ForbiddenComponent -->
<g id="node5" class="node">
<title>ForbiddenComponent</title>
<polygon fill="#ffffb3" stroke="black" points="2113.38,-84.8 1974.62,-84.8 1974.62,-48.8 2113.38,-48.8 2113.38,-84.8"/>
<text text-anchor="middle" x="2044" y="-62.6" font-family="Times,serif" font-size="14.00">ForbiddenComponent</text>
</g>
<!-- ForbiddenComponent&#45;&gt;AppModule -->
<g id="edge5" class="edge">
<title>ForbiddenComponent&#45;&gt;AppModule</title>
<path fill="none" stroke="black" d="M2044,-84.83C2044,-101.86 2044,-124.8 2044,-124.8 2044,-124.8 1591.67,-124.8 1591.67,-124.8"/>
<polygon fill="black" stroke="black" points="1591.67,-121.3 1581.67,-124.8 1591.67,-128.3 1591.67,-121.3"/>
</g>
<!-- ForgotPasswordComponent -->
<g id="node6" class="node">
<title>ForgotPasswordComponent</title>
<polygon fill="#ffffb3" stroke="black" points="1956.32,-84.8 1783.68,-84.8 1783.68,-48.8 1956.32,-48.8 1956.32,-84.8"/>
<text text-anchor="middle" x="1870" y="-62.6" font-family="Times,serif" font-size="14.00">ForgotPasswordComponent</text>
</g>
<!-- ForgotPasswordComponent&#45;&gt;AppModule -->
<g id="edge6" class="edge">
<title>ForgotPasswordComponent&#45;&gt;AppModule</title>
<path fill="none" stroke="black" d="M1870,-84.81C1870,-100.85 1870,-121.8 1870,-121.8 1870,-121.8 1591.79,-121.8 1591.79,-121.8"/>
<polygon fill="black" stroke="black" points="1591.79,-118.3 1581.79,-121.8 1591.79,-125.3 1591.79,-118.3"/>
</g>
<!-- LoginComponent -->
<g id="node7" class="node">
<title>LoginComponent</title>
<polygon fill="#ffffb3" stroke="black" points="1765.28,-84.8 1650.72,-84.8 1650.72,-48.8 1765.28,-48.8 1765.28,-84.8"/>
<text text-anchor="middle" x="1708" y="-62.6" font-family="Times,serif" font-size="14.00">LoginComponent</text>
</g>
<!-- LoginComponent&#45;&gt;AppModule -->
<g id="edge7" class="edge">
<title>LoginComponent&#45;&gt;AppModule</title>
<path fill="none" stroke="black" d="M1708,-84.92C1708,-99.58 1708,-117.8 1708,-117.8 1708,-117.8 1591.96,-117.8 1591.96,-117.8"/>
<polygon fill="black" stroke="black" points="1591.96,-114.3 1581.96,-117.8 1591.96,-121.3 1591.96,-114.3"/>
</g>
<!-- ManageTemplatesComponent -->
<g id="node8" class="node">
<title>ManageTemplatesComponent</title>
<polygon fill="#ffffb3" stroke="black" points="1632.23,-84.8 1447.77,-84.8 1447.77,-48.8 1632.23,-48.8 1632.23,-84.8"/>
<text text-anchor="middle" x="1540" y="-62.6" font-family="Times,serif" font-size="14.00">ManageTemplatesComponent</text>
</g>
<!-- ManageTemplatesComponent&#45;&gt;AppModule -->
<g id="edge8" class="edge">
<title>ManageTemplatesComponent&#45;&gt;AppModule</title>
<path fill="none" stroke="black" d="M1540,-84.91C1540,-84.91 1540,-103.79 1540,-103.79"/>
<polygon fill="black" stroke="black" points="1536.5,-103.79 1540,-113.79 1543.5,-103.79 1536.5,-103.79"/>
</g>
<!-- NavComponent -->
<g id="node9" class="node">
<title>NavComponent</title>
<polygon fill="#ffffb3" stroke="black" points="1429.15,-84.8 1324.85,-84.8 1324.85,-48.8 1429.15,-48.8 1429.15,-84.8"/>
<text text-anchor="middle" x="1377" y="-62.6" font-family="Times,serif" font-size="14.00">NavComponent</text>
</g>
<!-- NavComponent&#45;&gt;AppModule -->
<g id="edge9" class="edge">
<title>NavComponent&#45;&gt;AppModule</title>
<path fill="none" stroke="black" d="M1377,-84.92C1377,-99.58 1377,-117.8 1377,-117.8 1377,-117.8 1488.02,-117.8 1488.02,-117.8"/>
<polygon fill="black" stroke="black" points="1488.02,-121.3 1498.02,-117.8 1488.02,-114.3 1488.02,-121.3"/>
</g>
<!-- NotFoundComponent -->
<g id="node10" class="node">
<title>NotFoundComponent</title>
<polygon fill="#ffffb3" stroke="black" points="1307.11,-84.8 1168.89,-84.8 1168.89,-48.8 1307.11,-48.8 1307.11,-84.8"/>
<text text-anchor="middle" x="1238" y="-62.6" font-family="Times,serif" font-size="14.00">NotFoundComponent</text>
</g>
<!-- NotFoundComponent&#45;&gt;AppModule -->
<g id="edge10" class="edge">
<title>NotFoundComponent&#45;&gt;AppModule</title>
<path fill="none" stroke="black" d="M1238,-84.81C1238,-100.85 1238,-121.8 1238,-121.8 1238,-121.8 1488.33,-121.8 1488.33,-121.8"/>
<polygon fill="black" stroke="black" points="1488.33,-125.3 1498.33,-121.8 1488.33,-118.3 1488.33,-125.3"/>
</g>
<!-- PhoneConfirmationComponent -->
<g id="node11" class="node">
<title>PhoneConfirmationComponent</title>
<polygon fill="#ffffb3" stroke="black" points="1150.76,-84.8 959.24,-84.8 959.24,-48.8 1150.76,-48.8 1150.76,-84.8"/>
<text text-anchor="middle" x="1055" y="-62.6" font-family="Times,serif" font-size="14.00">PhoneConfirmationComponent</text>
</g>
<!-- PhoneConfirmationComponent&#45;&gt;AppModule -->
<g id="edge11" class="edge">
<title>PhoneConfirmationComponent&#45;&gt;AppModule</title>
<path fill="none" stroke="black" d="M1055,-84.83C1055,-101.86 1055,-124.8 1055,-124.8 1055,-124.8 1488.23,-124.8 1488.23,-124.8"/>
<polygon fill="black" stroke="black" points="1488.23,-128.3 1498.23,-124.8 1488.23,-121.3 1488.23,-128.3"/>
</g>
<!-- RegisterComponent -->
<g id="node12" class="node">
<title>RegisterComponent</title>
<polygon fill="#ffffb3" stroke="black" points="940.98,-84.8 813.02,-84.8 813.02,-48.8 940.98,-48.8 940.98,-84.8"/>
<text text-anchor="middle" x="877" y="-62.6" font-family="Times,serif" font-size="14.00">RegisterComponent</text>
</g>
<!-- RegisterComponent&#45;&gt;AppModule -->
<g id="edge12" class="edge">
<title>RegisterComponent&#45;&gt;AppModule</title>
<path fill="none" stroke="black" d="M877,-85.07C877,-103.36 877,-128.8 877,-128.8 877,-128.8 1488.28,-128.8 1488.28,-128.8"/>
<polygon fill="black" stroke="black" points="1488.28,-132.3 1498.28,-128.8 1488.28,-125.3 1488.28,-132.3"/>
</g>
<!-- ResetPasswordComponent -->
<g id="node13" class="node">
<title>ResetPasswordComponent</title>
<polygon fill="#ffffb3" stroke="black" points="795.09,-84.8 628.91,-84.8 628.91,-48.8 795.09,-48.8 795.09,-84.8"/>
<text text-anchor="middle" x="712" y="-62.6" font-family="Times,serif" font-size="14.00">ResetPasswordComponent</text>
</g>
<!-- ResetPasswordComponent&#45;&gt;AppModule -->
<g id="edge13" class="edge">
<title>ResetPasswordComponent&#45;&gt;AppModule</title>
<path fill="none" stroke="black" d="M712,-84.91C712,-104.14 712,-131.8 712,-131.8 712,-131.8 1488.09,-131.8 1488.09,-131.8"/>
<polygon fill="black" stroke="black" points="1488.09,-135.3 1498.09,-131.8 1488.09,-128.3 1488.09,-135.3"/>
</g>
<!-- ServerErrorComponent -->
<g id="node14" class="node">
<title>ServerErrorComponent</title>
<polygon fill="#ffffb3" stroke="black" points="610.9,-84.8 463.1,-84.8 463.1,-48.8 610.9,-48.8 610.9,-84.8"/>
<text text-anchor="middle" x="537" y="-62.6" font-family="Times,serif" font-size="14.00">ServerErrorComponent</text>
</g>
<!-- ServerErrorComponent&#45;&gt;AppModule -->
<g id="edge14" class="edge">
<title>ServerErrorComponent&#45;&gt;AppModule</title>
<path fill="none" stroke="black" d="M537,-84.93C537,-105.37 537,-135.8 537,-135.8 537,-135.8 1488.18,-135.8 1488.18,-135.8"/>
<polygon fill="black" stroke="black" points="1488.18,-139.3 1498.18,-135.8 1488.18,-132.3 1488.18,-139.3"/>
</g>
<!-- VerifyPhoneComponent -->
<g id="node15" class="node">
<title>VerifyPhoneComponent</title>
<polygon fill="#ffffb3" stroke="black" points="445.36,-84.8 292.64,-84.8 292.64,-48.8 445.36,-48.8 445.36,-84.8"/>
<text text-anchor="middle" x="369" y="-62.6" font-family="Times,serif" font-size="14.00">VerifyPhoneComponent</text>
</g>
<!-- VerifyPhoneComponent&#45;&gt;AppModule -->
<g id="edge15" class="edge">
<title>VerifyPhoneComponent&#45;&gt;AppModule</title>
<path fill="none" stroke="black" d="M369,-84.84C369,-106.46 369,-139.8 369,-139.8 369,-139.8 1488.32,-139.8 1488.32,-139.8"/>
<polygon fill="black" stroke="black" points="1488.32,-143.3 1498.32,-139.8 1488.32,-136.3 1488.32,-143.3"/>
</g>
<!-- AppComponent  -->
<g id="node19" class="node">
<title>AppComponent </title>
<polygon fill="#80b1d3" stroke="black" points="1594.44,-214.8 1485.56,-214.8 1485.56,-178.8 1594.44,-178.8 1594.44,-214.8"/>
<text text-anchor="middle" x="1540" y="-192.6" font-family="Times,serif" font-size="14.00">AppComponent </text>
</g>
<!-- AppModule&#45;&gt;AppComponent  -->
<g id="edge18" class="edge">
<title>AppModule&#45;&gt;AppComponent </title>
<path fill="none" stroke="black" stroke-dasharray="1,5" d="M1540,-149.91C1540,-149.91 1540,-168.79 1540,-168.79"/>
<polygon fill="black" stroke="black" points="1536.5,-168.79 1540,-178.79 1543.5,-168.79 1536.5,-168.79"/>
</g>
<!-- AppRoutingModule -->
<g id="node17" class="node">
<title>AppRoutingModule</title>
<polygon fill="#8dd3c7" stroke="black" points="269.27,-84.8 266.27,-88.8 245.27,-88.8 242.27,-84.8 140.73,-84.8 140.73,-48.8 269.27,-48.8 269.27,-84.8"/>
<text text-anchor="middle" x="205" y="-62.6" font-family="Times,serif" font-size="14.00">AppRoutingModule</text>
</g>
<!-- AppRoutingModule&#45;&gt;AppModule -->
<g id="edge16" class="edge">
<title>AppRoutingModule&#45;&gt;AppModule</title>
<path fill="none" stroke="black" d="M205,-84.81C205,-107.29 205,-142.8 205,-142.8 205,-142.8 1488.21,-142.8 1488.21,-142.8"/>
<polygon fill="black" stroke="black" points="1488.21,-146.3 1498.21,-142.8 1488.21,-139.3 1488.21,-146.3"/>
</g>
<!-- SharedModule -->
<g id="node18" class="node">
<title>SharedModule</title>
<polygon fill="#8dd3c7" stroke="black" points="122.42,-84.8 119.42,-88.8 98.42,-88.8 95.42,-84.8 23.58,-84.8 23.58,-48.8 122.42,-48.8 122.42,-84.8"/>
<text text-anchor="middle" x="73" y="-62.6" font-family="Times,serif" font-size="14.00">SharedModule</text>
</g>
<!-- SharedModule&#45;&gt;AppModule -->
<g id="edge17" class="edge">
<title>SharedModule&#45;&gt;AppModule</title>
<path fill="none" stroke="black" d="M73,-84.95C73,-108.56 73,-146.8 73,-146.8 73,-146.8 1488.07,-146.8 1488.07,-146.8"/>
<polygon fill="black" stroke="black" points="1488.07,-150.3 1498.07,-146.8 1488.07,-143.3 1488.07,-150.3"/>
</g>
<!-- ErrorInterceptor -->
<g id="node20" class="node">
<title>ErrorInterceptor</title>
<ellipse fill="#fdb462" stroke="black" cx="2882" cy="-66.8" rx="73.53" ry="18"/>
<text text-anchor="middle" x="2882" y="-62.6" font-family="Times,serif" font-size="14.00">ErrorInterceptor</text>
</g>
<!-- ErrorInterceptor&#45;&gt;AppModule -->
<g id="edge19" class="edge">
<title>ErrorInterceptor&#45;&gt;AppModule</title>
<path fill="none" stroke="black" d="M2882,-84.95C2882,-108.56 2882,-146.8 2882,-146.8 2882,-146.8 1592.01,-146.8 1592.01,-146.8"/>
<polygon fill="black" stroke="black" points="1592.01,-143.3 1582.01,-146.8 1592.01,-150.3 1592.01,-143.3"/>
</g>
<!-- UrlService -->
<g id="node21" class="node">
<title>UrlService</title>
<ellipse fill="#fdb462" stroke="black" cx="2737" cy="-66.8" rx="52.72" ry="18"/>
<text text-anchor="middle" x="2737" y="-62.6" font-family="Times,serif" font-size="14.00">UrlService</text>
</g>
<!-- UrlService&#45;&gt;AppModule -->
<g id="edge20" class="edge">
<title>UrlService&#45;&gt;AppModule</title>
<path fill="none" stroke="black" d="M2737,-84.81C2737,-107.29 2737,-142.8 2737,-142.8 2737,-142.8 1591.9,-142.8 1591.9,-142.8"/>
<polygon fill="black" stroke="black" points="1591.9,-139.3 1581.9,-142.8 1591.9,-146.3 1591.9,-139.3"/>
</g>
</g>
</svg>
