<?xml version="1.0" encoding="UTF-8" standalone="no"?>
<!DOCTYPE svg PUBLIC "-//W3C//DTD SVG 1.1//EN"
 "http://www.w3.org/Graphics/SVG/1.1/DTD/svg11.dtd">
<!-- Generated by graphviz version 2.47.3 (20210619.1520)
 -->
<!-- Title: dependencies Pages: 1 -->
<svg width="3189pt" height="247pt"
 viewBox="0.00 0.00 3189.00 246.80" xmlns="http://www.w3.org/2000/svg" xmlns:xlink="http://www.w3.org/1999/xlink">
<g id="graph0" class="graph" transform="scale(1 1) rotate(0) translate(4 242.8)">
<title>dependencies</title>
<polygon fill="white" stroke="transparent" points="-4,4 -4,-242.8 3185,-242.8 3185,4 -4,4"/>
<text text-anchor="middle" x="1590.5" y="-8.2" font-family="sans-serif" font-size="14.00">dependencies</text>
<g id="clust1" class="cluster">
<title>cluster_AppModule</title>
<polygon fill="none" stroke="black" stroke-dasharray="1,5" points="8,-32.8 8,-230.8 3173,-230.8 3173,-32.8 8,-32.8"/>
</g>
<g id="clust2" class="cluster">
<title>cluster_AppModule_declarations</title>
<polygon fill="none" stroke="black" points="581,-40.8 581,-92.8 3165,-92.8 3165,-40.8 581,-40.8"/>
</g>
<g id="clust19" class="cluster">
<title>cluster_AppModule_imports</title>
<polygon fill="none" stroke="black" points="312,-40.8 312,-92.8 573,-92.8 573,-40.8 312,-40.8"/>
</g>
<g id="clust21" class="cluster">
<title>cluster_AppModule_bootstrap</title>
<polygon fill="none" stroke="black" points="1581,-170.8 1581,-222.8 1705,-222.8 1705,-170.8 1581,-170.8"/>
</g>
<g id="clust22" class="cluster">
<title>cluster_AppModule_providers</title>
<polygon fill="none" stroke="black" points="16,-40.8 16,-92.8 304,-92.8 304,-40.8 16,-40.8"/>
</g>
<!-- AppComponent -->
<g id="node1" class="node">
<title>AppComponent</title>
<polygon fill="#ffffb3" stroke="black" points="3156.94,-84.8 3051.06,-84.8 3051.06,-48.8 3156.94,-48.8 3156.94,-84.8"/>
<text text-anchor="middle" x="3104" y="-62.6" font-family="Times,serif" font-size="14.00">AppComponent</text>
</g>
<!-- AppModule -->
<g id="node17" class="node">
<title>AppModule</title>
<polygon fill="#8dd3c7" stroke="black" points="1684.66,-149.8 1681.66,-153.8 1660.66,-153.8 1657.66,-149.8 1601.34,-149.8 1601.34,-113.8 1684.66,-113.8 1684.66,-149.8"/>
<text text-anchor="middle" x="1643" y="-127.6" font-family="Times,serif" font-size="14.00">AppModule</text>
</g>
<!-- AppComponent&#45;&gt;AppModule -->
<g id="edge1" class="edge">
<title>AppComponent&#45;&gt;AppModule</title>
<path fill="none" stroke="black" d="M3104,-84.95C3104,-108.56 3104,-146.8 3104,-146.8 3104,-146.8 1694.76,-146.8 1694.76,-146.8"/>
<polygon fill="black" stroke="black" points="1694.76,-143.3 1684.76,-146.8 1694.76,-150.3 1694.76,-143.3"/>
</g>
<!-- AuthComponent -->
<g id="node2" class="node">
<title>AuthComponent</title>
<polygon fill="#ffffb3" stroke="black" points="3033.83,-84.8 2924.17,-84.8 2924.17,-48.8 3033.83,-48.8 3033.83,-84.8"/>
<text text-anchor="middle" x="2979" y="-62.6" font-family="Times,serif" font-size="14.00">AuthComponent</text>
</g>
<!-- AuthComponent&#45;&gt;AppModule -->
<g id="edge2" class="edge">
<title>AuthComponent&#45;&gt;AppModule</title>
<path fill="none" stroke="black" d="M2979,-84.81C2979,-107.29 2979,-142.8 2979,-142.8 2979,-142.8 1694.82,-142.8 1694.82,-142.8"/>
<polygon fill="black" stroke="black" points="1694.82,-139.3 1684.82,-142.8 1694.82,-146.3 1694.82,-139.3"/>
</g>
<!-- DashboardComponent -->
<g id="node3" class="node">
<title>DashboardComponent</title>
<polygon fill="#ffffb3" stroke="black" points="2905.97,-84.8 2764.03,-84.8 2764.03,-48.8 2905.97,-48.8 2905.97,-84.8"/>
<text text-anchor="middle" x="2835" y="-62.6" font-family="Times,serif" font-size="14.00">DashboardComponent</text>
</g>
<!-- DashboardComponent&#45;&gt;AppModule -->
<g id="edge3" class="edge">
<title>DashboardComponent&#45;&gt;AppModule</title>
<path fill="none" stroke="black" d="M2835,-84.84C2835,-106.46 2835,-139.8 2835,-139.8 2835,-139.8 1694.72,-139.8 1694.72,-139.8"/>
<polygon fill="black" stroke="black" points="1694.73,-136.3 1684.72,-139.8 1694.72,-143.3 1694.73,-136.3"/>
</g>
<!-- FooterComponent -->
<g id="node4" class="node">
<title>FooterComponent</title>
<polygon fill="#ffffb3" stroke="black" points="2745.88,-84.8 2628.12,-84.8 2628.12,-48.8 2745.88,-48.8 2745.88,-84.8"/>
<text text-anchor="middle" x="2687" y="-62.6" font-family="Times,serif" font-size="14.00">FooterComponent</text>
</g>
<!-- FooterComponent&#45;&gt;AppModule -->
<g id="edge4" class="edge">
<title>FooterComponent&#45;&gt;AppModule</title>
<path fill="none" stroke="black" d="M2687,-84.93C2687,-105.37 2687,-135.8 2687,-135.8 2687,-135.8 1694.89,-135.8 1694.89,-135.8"/>
<polygon fill="black" stroke="black" points="1694.89,-132.3 1684.89,-135.8 1694.89,-139.3 1694.89,-132.3"/>
</g>
<!-- ForbiddenComponent -->
<g id="node5" class="node">
<title>ForbiddenComponent</title>
<polygon fill="#ffffb3" stroke="black" points="2610.38,-84.8 2471.62,-84.8 2471.62,-48.8 2610.38,-48.8 2610.38,-84.8"/>
<text text-anchor="middle" x="2541" y="-62.6" font-family="Times,serif" font-size="14.00">ForbiddenComponent</text>
</g>
<!-- ForbiddenComponent&#45;&gt;AppModule -->
<g id="edge5" class="edge">
<title>ForbiddenComponent&#45;&gt;AppModule</title>
<path fill="none" stroke="black" d="M2541,-84.91C2541,-104.14 2541,-131.8 2541,-131.8 2541,-131.8 1694.81,-131.8 1694.81,-131.8"/>
<polygon fill="black" stroke="black" points="1694.81,-128.3 1684.81,-131.8 1694.81,-135.3 1694.81,-128.3"/>
</g>
<!-- ForgotPasswordComponent -->
<g id="node6" class="node">
<title>ForgotPasswordComponent</title>
<polygon fill="#ffffb3" stroke="black" points="2453.32,-84.8 2280.68,-84.8 2280.68,-48.8 2453.32,-48.8 2453.32,-84.8"/>
<text text-anchor="middle" x="2367" y="-62.6" font-family="Times,serif" font-size="14.00">ForgotPasswordComponent</text>
</g>
<!-- ForgotPasswordComponent&#45;&gt;AppModule -->
<g id="edge6" class="edge">
<title>ForgotPasswordComponent&#45;&gt;AppModule</title>
<path fill="none" stroke="black" d="M2367,-85.07C2367,-103.36 2367,-128.8 2367,-128.8 2367,-128.8 1694.79,-128.8 1694.79,-128.8"/>
<polygon fill="black" stroke="black" points="1694.79,-125.3 1684.79,-128.8 1694.79,-132.3 1694.79,-125.3"/>
</g>
<!-- LoginComponent -->
<g id="node7" class="node">
<title>LoginComponent</title>
<polygon fill="#ffffb3" stroke="black" points="2262.28,-84.8 2147.72,-84.8 2147.72,-48.8 2262.28,-48.8 2262.28,-84.8"/>
<text text-anchor="middle" x="2205" y="-62.6" font-family="Times,serif" font-size="14.00">LoginComponent</text>
</g>
<!-- LoginComponent&#45;&gt;AppModule -->
<g id="edge7" class="edge">
<title>LoginComponent&#45;&gt;AppModule</title>
<path fill="none" stroke="black" d="M2205,-84.83C2205,-101.86 2205,-124.8 2205,-124.8 2205,-124.8 1694.78,-124.8 1694.78,-124.8"/>
<polygon fill="black" stroke="black" points="1694.78,-121.3 1684.78,-124.8 1694.78,-128.3 1694.78,-121.3"/>
</g>
<!-- ManageTemplatesComponent -->
<g id="node8" class="node">
<title>ManageTemplatesComponent</title>
<polygon fill="#ffffb3" stroke="black" points="2129.23,-84.8 1944.77,-84.8 1944.77,-48.8 2129.23,-48.8 2129.23,-84.8"/>
<text text-anchor="middle" x="2037" y="-62.6" font-family="Times,serif" font-size="14.00">ManageTemplatesComponent</text>
</g>
<!-- ManageTemplatesComponent&#45;&gt;AppModule -->
<g id="edge8" class="edge">
<title>ManageTemplatesComponent&#45;&gt;AppModule</title>
<path fill="none" stroke="black" d="M2037,-84.81C2037,-100.85 2037,-121.8 2037,-121.8 2037,-121.8 1694.79,-121.8 1694.79,-121.8"/>
<polygon fill="black" stroke="black" points="1694.79,-118.3 1684.79,-121.8 1694.79,-125.3 1694.79,-118.3"/>
</g>
<!-- NavComponent -->
<g id="node9" class="node">
<title>NavComponent</title>
<polygon fill="#ffffb3" stroke="black" points="1926.15,-84.8 1821.85,-84.8 1821.85,-48.8 1926.15,-48.8 1926.15,-84.8"/>
<text text-anchor="middle" x="1874" y="-62.6" font-family="Times,serif" font-size="14.00">NavComponent</text>
</g>
<!-- NavComponent&#45;&gt;AppModule -->
<g id="edge9" class="edge">
<title>NavComponent&#45;&gt;AppModule</title>
<path fill="none" stroke="black" d="M1874,-84.92C1874,-99.58 1874,-117.8 1874,-117.8 1874,-117.8 1694.83,-117.8 1694.83,-117.8"/>
<polygon fill="black" stroke="black" points="1694.83,-114.3 1684.83,-117.8 1694.83,-121.3 1694.83,-114.3"/>
</g>
<!-- NotFoundComponent -->
<g id="node10" class="node">
<title>NotFoundComponent</title>
<polygon fill="#ffffb3" stroke="black" points="1804.11,-84.8 1665.89,-84.8 1665.89,-48.8 1804.11,-48.8 1804.11,-84.8"/>
<text text-anchor="middle" x="1735" y="-62.6" font-family="Times,serif" font-size="14.00">NotFoundComponent</text>
</g>
<!-- NotFoundComponent&#45;&gt;AppModule -->
<g id="edge10" class="edge">
<title>NotFoundComponent&#45;&gt;AppModule</title>
<path fill="none" stroke="black" d="M1675.39,-84.91C1675.39,-84.91 1675.39,-103.79 1675.39,-103.79"/>
<polygon fill="black" stroke="black" points="1671.89,-103.79 1675.39,-113.79 1678.89,-103.79 1671.89,-103.79"/>
</g>
<!-- PhoneConfirmationComponent -->
<g id="node11" class="node">
<title>PhoneConfirmationComponent</title>
<polygon fill="#ffffb3" stroke="black" points="1647.76,-84.8 1456.24,-84.8 1456.24,-48.8 1647.76,-48.8 1647.76,-84.8"/>
<text text-anchor="middle" x="1552" y="-62.6" font-family="Times,serif" font-size="14.00">PhoneConfirmationComponent</text>
</g>
<!-- PhoneConfirmationComponent&#45;&gt;AppModule -->
<g id="edge11" class="edge">
<title>PhoneConfirmationComponent&#45;&gt;AppModule</title>
<path fill="none" stroke="black" d="M1624.53,-84.91C1624.53,-84.91 1624.53,-103.79 1624.53,-103.79"/>
<polygon fill="black" stroke="black" points="1621.03,-103.79 1624.53,-113.79 1628.03,-103.79 1621.03,-103.79"/>
</g>
<!-- RegisterComponent -->
<g id="node12" class="node">
<title>RegisterComponent</title>
<polygon fill="#ffffb3" stroke="black" points="1437.98,-84.8 1310.02,-84.8 1310.02,-48.8 1437.98,-48.8 1437.98,-84.8"/>
<text text-anchor="middle" x="1374" y="-62.6" font-family="Times,serif" font-size="14.00">RegisterComponent</text>
</g>
<!-- RegisterComponent&#45;&gt;AppModule -->
<g id="edge12" class="edge">
<title>RegisterComponent&#45;&gt;AppModule</title>
<path fill="none" stroke="black" d="M1374,-84.92C1374,-99.58 1374,-117.8 1374,-117.8 1374,-117.8 1591.26,-117.8 1591.26,-117.8"/>
<polygon fill="black" stroke="black" points="1591.26,-121.3 1601.26,-117.8 1591.26,-114.3 1591.26,-121.3"/>
</g>
<!-- ResetPasswordComponent -->
<g id="node13" class="node">
<title>ResetPasswordComponent</title>
<polygon fill="#ffffb3" stroke="black" points="1292.09,-84.8 1125.91,-84.8 1125.91,-48.8 1292.09,-48.8 1292.09,-84.8"/>
<text text-anchor="middle" x="1209" y="-62.6" font-family="Times,serif" font-size="14.00">ResetPasswordComponent</text>
</g>
<!-- ResetPasswordComponent&#45;&gt;AppModule -->
<g id="edge13" class="edge">
<title>ResetPasswordComponent&#45;&gt;AppModule</title>
<path fill="none" stroke="black" d="M1209,-84.81C1209,-100.85 1209,-121.8 1209,-121.8 1209,-121.8 1590.99,-121.8 1590.99,-121.8"/>
<polygon fill="black" stroke="black" points="1590.99,-125.3 1600.99,-121.8 1590.99,-118.3 1590.99,-125.3"/>
</g>
<!-- ServerErrorComponent -->
<g id="node14" class="node">
<title>ServerErrorComponent</title>
<polygon fill="#ffffb3" stroke="black" points="1107.9,-84.8 960.1,-84.8 960.1,-48.8 1107.9,-48.8 1107.9,-84.8"/>
<text text-anchor="middle" x="1034" y="-62.6" font-family="Times,serif" font-size="14.00">ServerErrorComponent</text>
</g>
<!-- ServerErrorComponent&#45;&gt;AppModule -->
<g id="edge14" class="edge">
<title>ServerErrorComponent&#45;&gt;AppModule</title>
<path fill="none" stroke="black" d="M1034,-84.83C1034,-101.86 1034,-124.8 1034,-124.8 1034,-124.8 1591.14,-124.8 1591.14,-124.8"/>
<polygon fill="black" stroke="black" points="1591.14,-128.3 1601.14,-124.8 1591.14,-121.3 1591.14,-128.3"/>
</g>
<!-- UpdatedPasswordComponent -->
<g id="node15" class="node">
<title>UpdatedPasswordComponent</title>
<polygon fill="#ffffb3" stroke="black" points="942.41,-84.8 759.59,-84.8 759.59,-48.8 942.41,-48.8 942.41,-84.8"/>
<text text-anchor="middle" x="851" y="-62.6" font-family="Times,serif" font-size="14.00">UpdatedPasswordComponent</text>
</g>
<!-- UpdatedPasswordComponent&#45;&gt;AppModule -->
<g id="edge15" class="edge">
<title>UpdatedPasswordComponent&#45;&gt;AppModule</title>
<path fill="none" stroke="black" d="M851,-85.07C851,-103.36 851,-128.8 851,-128.8 851,-128.8 1591.26,-128.8 1591.26,-128.8"/>
<polygon fill="black" stroke="black" points="1591.26,-132.3 1601.26,-128.8 1591.26,-125.3 1591.26,-132.3"/>
</g>
<!-- VerifyPhoneComponent -->
<g id="node16" class="node">
<title>VerifyPhoneComponent</title>
<polygon fill="#ffffb3" stroke="black" points="741.36,-84.8 588.64,-84.8 588.64,-48.8 741.36,-48.8 741.36,-84.8"/>
<text text-anchor="middle" x="665" y="-62.6" font-family="Times,serif" font-size="14.00">VerifyPhoneComponent</text>
</g>
<!-- VerifyPhoneComponent&#45;&gt;AppModule -->
<g id="edge16" class="edge">
<title>VerifyPhoneComponent&#45;&gt;AppModule</title>
<path fill="none" stroke="black" d="M665,-84.91C665,-104.14 665,-131.8 665,-131.8 665,-131.8 1591.29,-131.8 1591.29,-131.8"/>
<polygon fill="black" stroke="black" points="1591.29,-135.3 1601.29,-131.8 1591.29,-128.3 1591.29,-135.3"/>
</g>
<!-- AppComponent  -->
<g id="node20" class="node">
<title>AppComponent </title>
<polygon fill="#80b1d3" stroke="black" points="1697.44,-214.8 1588.56,-214.8 1588.56,-178.8 1697.44,-178.8 1697.44,-214.8"/>
<text text-anchor="middle" x="1643" y="-192.6" font-family="Times,serif" font-size="14.00">AppComponent </text>
</g>
<!-- AppModule&#45;&gt;AppComponent  -->
<g id="edge19" class="edge">
<title>AppModule&#45;&gt;AppComponent </title>
<path fill="none" stroke="black" stroke-dasharray="1,5" d="M1643,-149.91C1643,-149.91 1643,-168.79 1643,-168.79"/>
<polygon fill="black" stroke="black" points="1639.5,-168.79 1643,-178.79 1646.5,-168.79 1639.5,-168.79"/>
</g>
<!-- AppRoutingModule -->
<g id="node18" class="node">
<title>AppRoutingModule</title>
<polygon fill="#8dd3c7" stroke="black" points="565.27,-84.8 562.27,-88.8 541.27,-88.8 538.27,-84.8 436.73,-84.8 436.73,-48.8 565.27,-48.8 565.27,-84.8"/>
<text text-anchor="middle" x="501" y="-62.6" font-family="Times,serif" font-size="14.00">AppRoutingModule</text>
</g>
<!-- AppRoutingModule&#45;&gt;AppModule -->
<g id="edge17" class="edge">
<title>AppRoutingModule&#45;&gt;AppModule</title>
<path fill="none" stroke="black" d="M501,-84.93C501,-105.37 501,-135.8 501,-135.8 501,-135.8 1591.34,-135.8 1591.34,-135.8"/>
<polygon fill="black" stroke="black" points="1591.34,-139.3 1601.34,-135.8 1591.34,-132.3 1591.34,-139.3"/>
</g>
<!-- SharedModule -->
<g id="node19" class="node">
<title>SharedModule</title>
<polygon fill="#8dd3c7" stroke="black" points="418.42,-84.8 415.42,-88.8 394.42,-88.8 391.42,-84.8 319.58,-84.8 319.58,-48.8 418.42,-48.8 418.42,-84.8"/>
<text text-anchor="middle" x="369" y="-62.6" font-family="Times,serif" font-size="14.00">SharedModule</text>
</g>
<!-- SharedModule&#45;&gt;AppModule -->
<g id="edge18" class="edge">
<title>SharedModule&#45;&gt;AppModule</title>
<path fill="none" stroke="black" d="M369,-84.84C369,-106.46 369,-139.8 369,-139.8 369,-139.8 1591.34,-139.8 1591.34,-139.8"/>
<polygon fill="black" stroke="black" points="1591.34,-143.3 1601.34,-139.8 1591.34,-136.3 1591.34,-143.3"/>
</g>
<!-- ErrorInterceptor -->
<g id="node21" class="node">
<title>ErrorInterceptor</title>
<ellipse fill="#fdb462" stroke="black" cx="222" cy="-66.8" rx="73.53" ry="18"/>
<text text-anchor="middle" x="222" y="-62.6" font-family="Times,serif" font-size="14.00">ErrorInterceptor</text>
</g>
<!-- ErrorInterceptor&#45;&gt;AppModule -->
<g id="edge20" class="edge">
<title>ErrorInterceptor&#45;&gt;AppModule</title>
<path fill="none" stroke="black" d="M222,-84.81C222,-107.29 222,-142.8 222,-142.8 222,-142.8 1591.24,-142.8 1591.24,-142.8"/>
<polygon fill="black" stroke="black" points="1591.24,-146.3 1601.24,-142.8 1591.24,-139.3 1591.24,-146.3"/>
</g>
<!-- UrlService -->
<g id="node22" class="node">
<title>UrlService</title>
<ellipse fill="#fdb462" stroke="black" cx="77" cy="-66.8" rx="52.72" ry="18"/>
<text text-anchor="middle" x="77" y="-62.6" font-family="Times,serif" font-size="14.00">UrlService</text>
</g>
<!-- UrlService&#45;&gt;AppModule -->
<g id="edge21" class="edge">
<title>UrlService&#45;&gt;AppModule</title>
<path fill="none" stroke="black" d="M77,-84.95C77,-108.56 77,-146.8 77,-146.8 77,-146.8 1591.11,-146.8 1591.11,-146.8"/>
<polygon fill="black" stroke="black" points="1591.11,-150.3 1601.11,-146.8 1591.11,-143.3 1591.11,-150.3"/>
</g>
</g>
</svg>
